<svg xmlns="http://www.w3.org/2000/svg" width="1400" height="830" viewBox="0 0 1400 830">
<rect x="0" y="0" width="1400" height="830" fill="#ffffff"/>
<rect x="170" y="40" width="190" height="110" fill="none" stroke="#000000" stroke-width="1.5"/>
<text x="184" y="66" font-family="Consolas, monospace" font-size="15" font-weight="bold" fill="#000000" text-anchor="start">HX711</text>
<text x="184" y="86" font-family="Consolas, monospace" font-size="11" font-weight="normal" fill="#000000" text-anchor="start">Load Cell Amp</text>
<line x1="200" y1="150" x2="200" y2="166" stroke="#d32f2f" stroke-width="2"/>
<text x="200" y="216" font-family="Consolas, monospace" font-size="10" font-weight="normal" fill="#000000" text-anchor="middle">VCC</text>
<line x1="233" y1="150" x2="233" y2="166" stroke="#000000" stroke-width="2"/>
<text x="233" y="216" font-family="Consolas, monospace" font-size="10" font-weight="normal" fill="#000000" text-anchor="middle">GND</text>
<line x1="266" y1="150" x2="266" y2="166" stroke="#2e7d32" stroke-width="2"/>
<text x="266" y="216" font-family="Consolas, monospace" font-size="10" font-weight="normal" fill="#000000" text-anchor="middle">DT</text>
<line x1="299" y1="150" x2="299" y2="166" stroke="#1565c0" stroke-width="2"/>
<text x="299" y="216" font-family="Consolas, monospace" font-size="10" font-weight="normal" fill="#000000" text-anchor="middle">SCK</text>
<rect x="430" y="55" width="44" height="44" fill="none" stroke="#000000" stroke-width="1.2"/>
<text x="452" y="82" font-family="Consolas, monospace" font-size="10" font-weight="normal" fill="#000000" text-anchor="middle">E+</text>
<line x1="360" y1="62" x2="430" y2="62" stroke="#9e9e9e" stroke-width="1.2"/>
<circle cx="360" cy="62" r="2" fill="#9e9e9e"/>
<rect x="498" y="55" width="44" height="44" fill="none" stroke="#000000" stroke-width="1.2"/>
<text x="520" y="82" font-family="Consolas, monospace" font-size="10" font-weight="normal" fill="#000000" text-anchor="middle">E-</text>
<line x1="360" y1="71" x2="498" y2="71" stroke="#9e9e9e" stroke-width="1.2"/>
<circle cx="360" cy="71" r="2" fill="#9e9e9e"/>
<rect x="566" y="55" width="44" height="44" fill="none" stroke="#000000" stroke-width="1.2"/>
<text x="588" y="82" font-family="Consolas, monospace" font-size="10" font-weight="normal" fill="#000000" text-anchor="middle">A-</text>
<line x1="360" y1="80" x2="566" y2="80" stroke="#9e9e9e" stroke-width="1.2"/>
<circle cx="360" cy="80" r="2" fill="#9e9e9e"/>
<rect x="634" y="55" width="44" height="44" fill="none" stroke="#000000" stroke-width="1.2"/>
<text x="656" y="82" font-family="Consolas, monospace" font-size="10" font-weight="normal" fill="#000000" text-anchor="middle">A+</text>
<line x1="360" y1="89" x2="634" y2="89" stroke="#9e9e9e" stroke-width="1.2"/>
<circle cx="360" cy="89" r="2" fill="#9e9e9e"/>
<text x="430" y="40" font-family="Consolas, monospace" font-size="11" font-weight="normal" fill="#000000" text-anchor="start">Load Cell (50kg)</text>
<rect x="760" y="40" width="340" height="160" fill="none" stroke="#000000" stroke-width="1.5"/>
<text x="776" y="68" font-family="Consolas, monospace" font-size="15" font-weight="bold" fill="#000000" text-anchor="start">16x4 LCD</text>
<text x="776" y="88" font-family="Consolas, monospace" font-size="11" font-weight="normal" fill="#000000" text-anchor="start">I2C Backpack (0x27)</text>
<line x1="805" y1="200" x2="805" y2="216" stroke="#000000" stroke-width="2"/>
<text x="805" y="286" font-family="Consolas, monospace" font-size="10" font-weight="normal" fill="#000000" text-anchor="middle">GND</text>
<line x1="855" y1="200" x2="855" y2="216" stroke="#d32f2f" stroke-width="2"/>
<text x="855" y="286" font-family="Consolas, monospace" font-size="10" font-weight="normal" fill="#000000" text-anchor="middle">VCC</text>
<line x1="905" y1="200" x2="905" y2="216" stroke="#2e7d32" stroke-width="2"/>
<text x="905" y="286" font-family="Consolas, monospace" font-size="10" font-weight="normal" fill="#000000" text-anchor="middle">SDA</text>
<line x1="955" y1="200" x2="955" y2="216" stroke="#1565c0" stroke-width="2"/>
<text x="955" y="286" font-family="Consolas, monospace" font-size="10" font-weight="normal" fill="#000000" text-anchor="middle">SCL</text>
<rect x="140" y="420" width="260" height="340" fill="none" stroke="#000000" stroke-width="1.5"/>
<text x="158" y="450" font-family="Consolas, monospace" font-size="15" font-weight="bold" fill="#000000" text-anchor="start">ESP32-C6</text>
<text x="158" y="470" font-family="Consolas, monospace" font-size="11" font-weight="normal" fill="#000000" text-anchor="start">DevKit</text>
<line x1="140" y1="470" x2="126" y2="470" stroke="#d32f2f" stroke-width="2"/>
<text x="122" y="457" font-family="Consolas, monospace" font-size="10" font-weight="normal" fill="#000000" text-anchor="end">3V3</text>
<line x1="140" y1="500" x2="126" y2="500" stroke="#000000" stroke-width="2"/>
<text x="122" y="487" font-family="Consolas, monospace" font-size="10" font-weight="normal" fill="#000000" text-anchor="end">GND</text>
<line x1="140" y1="530" x2="126" y2="530" stroke="#2e7d32" stroke-width="2"/>
<text x="122" y="517" font-family="Consolas, monospace" font-size="10" font-weight="normal" fill="#000000" text-anchor="end">D26/DT</text>
<line x1="140" y1="560" x2="126" y2="560" stroke="#1565c0" stroke-width="2"/>
<text x="122" y="547" font-family="Consolas, monospace" font-size="10" font-weight="normal" fill="#000000" text-anchor="end">D25/SCK</text>
<line x1="400" y1="450" x2="414" y2="450" stroke="#d32f2f" stroke-width="2"/>
<text x="418" y="437" font-family="Consolas, monospace" font-size="10" font-weight="normal" fill="#000000" text-anchor="start">3V3</text>
<line x1="400" y1="478" x2="414" y2="478" stroke="#000000" stroke-width="2"/>
<text x="418" y="465" font-family="Consolas, monospace" font-size="10" font-weight="normal" fill="#000000" text-anchor="start">GND</text>
<line x1="400" y1="506" x2="414" y2="506" stroke="#2e7d32" stroke-width="2"/>
<text x="418" y="493" font-family="Consolas, monospace" font-size="10" font-weight="normal" fill="#000000" text-anchor="start">D21/SDA</text>
<line x1="400" y1="534" x2="414" y2="534" stroke="#1565c0" stroke-width="2"/>
<text x="418" y="521" font-family="Consolas, monospace" font-size="10" font-weight="normal" fill="#000000" text-anchor="start">D22/SCL</text>
<line x1="400" y1="592" x2="414" y2="592" stroke="#ef6c00" stroke-width="2"/>
<text x="418" y="579" font-family="Consolas, monospace" font-size="10" font-weight="normal" fill="#000000" text-anchor="start">D5/RST</text>
<line x1="400" y1="620" x2="414" y2="620" stroke="#c9a400" stroke-width="2"/>
<text x="418" y="607" font-family="Consolas, monospace" font-size="10" font-weight="normal" fill="#000000" text-anchor="start">D4/SS</text>
<line x1="400" y1="648" x2="414" y2="648" stroke="#8e24aa" stroke-width="2"/>
<text x="418" y="635" font-family="Consolas, monospace" font-size="10" font-weight="normal" fill="#000000" text-anchor="start">D23/MOSI</text>
<line x1="400" y1="676" x2="414" y2="676" stroke="#6d4c41" stroke-width="2"/>
<text x="418" y="663" font-family="Consolas, monospace" font-size="10" font-weight="normal" fill="#000000" text-anchor="start">D19/MISO</text>
<line x1="400" y1="704" x2="414" y2="704" stroke="#616161" stroke-width="2"/>
<text x="418" y="691" font-family="Consolas, monospace" font-size="10" font-weight="normal" fill="#000000" text-anchor="start">D18/SCK</text>
<line x1="400" y1="732" x2="414" y2="732" stroke="#d32f2f" stroke-width="2"/>
<text x="418" y="719" font-family="Consolas, monospace" font-size="10" font-weight="normal" fill="#000000" text-anchor="start">3V3</text>
<line x1="400" y1="760" x2="414" y2="760" stroke="#000000" stroke-width="2"/>
<text x="418" y="747" font-family="Consolas, monospace" font-size="10" font-weight="normal" fill="#000000" text-anchor="start">GND</text>
<rect x="1150" y="430" width="220" height="320" fill="none" stroke="#000000" stroke-width="1.5"/>
<text x="1166" y="460" font-family="Consolas, monospace" font-size="15" font-weight="bold" fill="#000000" text-anchor="start">MFRC522</text>
<text x="1166" y="480" font-family="Consolas, monospace" font-size="11" font-weight="normal" fill="#000000" text-anchor="start">RFID Reader</text>
<line x1="1150" y1="462" x2="1136" y2="462" stroke="#ef6c00" stroke-width="2"/>
<text x="1132" y="449" font-family="Consolas, monospace" font-size="10" font-weight="normal" fill="#000000" text-anchor="end">RST</text>
<line x1="1150" y1="494" x2="1136" y2="494" stroke="#c9a400" stroke-width="2"/>
<text x="1132" y="481" font-family="Consolas, monospace" font-size="10" font-weight="normal" fill="#000000" text-anchor="end">SDA</text>
<line x1="1150" y1="526" x2="1136" y2="526" stroke="#8e24aa" stroke-width="2"/>
<text x="1132" y="513" font-family="Consolas, monospace" font-size="10" font-weight="normal" fill="#000000" text-anchor="end">MOSI</text>
<line x1="1150" y1="558" x2="1136" y2="558" stroke="#6d4c41" stroke-width="2"/>
<text x="1132" y="545" font-family="Consolas, monospace" font-size="10" font-weight="normal" fill="#000000" text-anchor="end">MISO</text>
<line x1="1150" y1="590" x2="1136" y2="590" stroke="#616161" stroke-width="2"/>
<text x="1132" y="577" font-family="Consolas, monospace" font-size="10" font-weight="normal" fill="#000000" text-anchor="end">SCK</text>
<line x1="1150" y1="622" x2="1136" y2="622" stroke="#d32f2f" stroke-width="2"/>
<text x="1132" y="609" font-family="Consolas, monospace" font-size="10" font-weight="normal" fill="#000000" text-anchor="end">3.3V</text>
<line x1="1150" y1="654" x2="1136" y2="654" stroke="#000000" stroke-width="2"/>
<text x="1132" y="641" font-family="Consolas, monospace" font-size="10" font-weight="normal" fill="#000000" text-anchor="end">GND</text>
<line x1="126" y1="470" x2="100" y2="470" stroke="#d32f2f" stroke-width="2"/>
<line x1="100" y1="470" x2="100" y2="160" stroke="#d32f2f" stroke-width="2"/>
<line x1="100" y1="160" x2="200" y2="160" stroke="#d32f2f" stroke-width="2"/>
<line x1="200" y1="160" x2="200" y2="164" stroke="#d32f2f" stroke-width="2"/>
<line x1="126" y1="500" x2="75" y2="500" stroke="#000000" stroke-width="2"/>
<line x1="75" y1="500" x2="75" y2="172" stroke="#000000" stroke-width="2"/>
<line x1="75" y1="172" x2="233" y2="172" stroke="#000000" stroke-width="2"/>
<line x1="233" y1="172" x2="233" y2="164" stroke="#000000" stroke-width="2"/>
<line x1="126" y1="530" x2="50" y2="530" stroke="#2e7d32" stroke-width="2"/>
<line x1="50" y1="530" x2="50" y2="184" stroke="#2e7d32" stroke-width="2"/>
<line x1="50" y1="184" x2="266" y2="184" stroke="#2e7d32" stroke-width="2"/>
<line x1="266" y1="184" x2="266" y2="164" stroke="#2e7d32" stroke-width="2"/>
<line x1="126" y1="560" x2="25" y2="560" stroke="#1565c0" stroke-width="2"/>
<line x1="25" y1="560" x2="25" y2="196" stroke="#1565c0" stroke-width="2"/>
<line x1="25" y1="196" x2="299" y2="196" stroke="#1565c0" stroke-width="2"/>
<line x1="299" y1="196" x2="299" y2="164" stroke="#1565c0" stroke-width="2"/>
<line x1="414" y1="450" x2="1000" y2="450" stroke="#d32f2f" stroke-width="2"/>
<line x1="1000" y1="450" x2="1000" y2="220" stroke="#d32f2f" stroke-width="2"/>
<line x1="1000" y1="220" x2="805" y2="220" stroke="#d32f2f" stroke-width="2"/>
<line x1="805" y1="220" x2="805" y2="214" stroke="#d32f2f" stroke-width="2"/>
<line x1="414" y1="478" x2="1020" y2="478" stroke="#000000" stroke-width="2"/>
<line x1="1020" y1="478" x2="1020" y2="235" stroke="#000000" stroke-width="2"/>
<line x1="1020" y1="235" x2="855" y2="235" stroke="#000000" stroke-width="2"/>
<line x1="855" y1="235" x2="855" y2="214" stroke="#000000" stroke-width="2"/>
<line x1="414" y1="506" x2="1040" y2="506" stroke="#2e7d32" stroke-width="2"/>
<line x1="1040" y1="506" x2="1040" y2="250" stroke="#2e7d32" stroke-width="2"/>
<line x1="1040" y1="250" x2="905" y2="250" stroke="#2e7d32" stroke-width="2"/>
<line x1="905" y1="250" x2="905" y2="214" stroke="#2e7d32" stroke-width="2"/>
<line x1="414" y1="534" x2="1060" y2="534" stroke="#1565c0" stroke-width="2"/>
<line x1="1060" y1="534" x2="1060" y2="265" stroke="#1565c0" stroke-width="2"/>
<line x1="1060" y1="265" x2="955" y2="265" stroke="#1565c0" stroke-width="2"/>
<line x1="955" y1="265" x2="955" y2="214" stroke="#1565c0" stroke-width="2"/>
<line x1="414" y1="592" x2="1080" y2="592" stroke="#ef6c00" stroke-width="2"/>
<line x1="1080" y1="592" x2="1080" y2="462" stroke="#ef6c00" stroke-width="2"/>
<line x1="1080" y1="462" x2="1136" y2="462" stroke="#ef6c00" stroke-width="2"/>
<line x1="414" y1="620" x2="1090" y2="620" stroke="#c9a400" stroke-width="2"/>
<line x1="1090" y1="620" x2="1090" y2="494" stroke="#c9a400" stroke-width="2"/>
<line x1="1090" y1="494" x2="1136" y2="494" stroke="#c9a400" stroke-width="2"/>
<line x1="414" y1="648" x2="1100" y2="648" stroke="#8e24aa" stroke-width="2"/>
<line x1="1100" y1="648" x2="1100" y2="526" stroke="#8e24aa" stroke-width="2"/>
<line x1="1100" y1="526" x2="1136" y2="526" stroke="#8e24aa" stroke-width="2"/>
<line x1="414" y1="676" x2="1110" y2="676" stroke="#6d4c41" stroke-width="2"/>
<line x1="1110" y1="676" x2="1110" y2="558" stroke="#6d4c41" stroke-width="2"/>
<line x1="1110" y1="558" x2="1136" y2="558" stroke="#6d4c41" stroke-width="2"/>
<line x1="414" y1="704" x2="1120" y2="704" stroke="#616161" stroke-width="2"/>
<line x1="1120" y1="704" x2="1120" y2="590" stroke="#616161" stroke-width="2"/>
<line x1="1120" y1="590" x2="1136" y2="590" stroke="#616161" stroke-width="2"/>
<line x1="414" y1="732" x2="1130" y2="732" stroke="#d32f2f" stroke-width="2"/>
<line x1="1130" y1="732" x2="1130" y2="622" stroke="#d32f2f" stroke-width="2"/>
<line x1="1130" y1="622" x2="1136" y2="622" stroke="#d32f2f" stroke-width="2"/>
<line x1="414" y1="760" x2="1140" y2="760" stroke="#000000" stroke-width="2"/>
<line x1="1140" y1="760" x2="1140" y2="654" stroke="#000000" stroke-width="2"/>
<line x1="1140" y1="654" x2="1136" y2="654" stroke="#000000" stroke-width="2"/>
</svg>
